<?xml version="1.0" encoding="UTF-8"?>
<svg id="My_design" data-name="My design" xmlns="http://www.w3.org/2000/svg" viewBox="0 0 9108 6048">
  <defs>
    <style>
      .cls-1 {
        fill: #3658a4;
      }

      .cls-2 {
        fill: #f3d53c;
      }
    </style>
  </defs>
  <rect class="cls-2" x="6.77" y="5369" width="9108" height="676.93"/>
  <rect class="cls-2" y="-5.33" width="9108" height="695.68"/>
  <rect class="cls-2" x="5760.25" y="2684.25" width="6018.58" height="676.93" transform="translate(5746.82 11792.25) rotate(-90)"/>
  <rect class="cls-2" x="-2676.16" y="2689.58" width="6029.24" height="676.93" transform="translate(-2689.58 3366.51) rotate(-90)"/>
  <g>
    <polygon class="cls-1" points="4567.54 5077.6 4567.54 5649.18 4419.6 5649.18 4419.6 5476.59 4314.26 5476.59 4314.26 5407.1 4177.52 5407.1 4177.52 5541.59 4345.64 5541.59 4345.64 5723.15 4177.52 5723.15 4177.52 5590.9 3899.58 5590.9 3899.58 5427.27 3693.37 5427.27 3693.37 5503.48 3809.92 5503.48 3809.92 5655.91 3641.81 5655.91 3641.81 5537.11 3444.56 5537.11 3444.56 5420.55 3184.55 5420.55 3184.55 5575.21 3267.48 5575.21 3267.48 5691.77 3092.65 5691.77 3092.65 5572.97 2906.61 5572.97 2906.61 5425.03 2731.77 5425.03 2731.77 5519.17 2552.45 5519.17 2552.45 5649.18 2429.17 5649.18 2429.17 5077.6 2595.04 5077.6 2595.04 5122.43 2691.42 5122.43 2691.42 4965.53 2960.4 4965.53 2960.4 4828.8 3141.96 4828.8 3141.96 4985.7 2960.4 4985.7 2960.4 5151.57 3108.34 5151.57 3108.34 5077.6 3265.24 5077.6 3265.24 5133.64 3442.32 5133.64 3442.32 4996.91 3644.05 4996.91 3644.05 5138.12 3785.27 5138.12 3785.27 4976.74 3684.4 4976.74 3684.4 4828.8 3870.44 4828.8 3870.44 4974.5 4078.9 4974.5 4078.9 5195.35 4251.49 5195.35 4251.49 5003.63 4164.08 5003.63 4164.08 4844.49 4316.5 4844.49 4316.5 5001.39 4477.88 5001.39 4477.88 5075.36 4567.54 5077.6"/>
    <rect class="cls-1" x="4388.22" y="4810.87" width="130.01" height="109.83"/>
    <rect class="cls-1" x="3265.24" y="4999.15" width="118.8" height="78.45"/>
    <polygon class="cls-1" points="2716.08 4777.25 2716.08 4844.49 2651.08 4844.49 2651.08 4981.22 2487.45 4981.22 2487.45 4842.25 2651.08 4844.49 2651.08 4777.25 2716.08 4777.25"/>
    <polygon class="cls-1" points="2877.47 5572.97 2877.47 5756.77 2736.25 5756.77 2736.25 5850.91 2487.45 5850.91 2487.45 5711.94 2700.39 5711.94 2700.39 5572.97 2877.47 5572.97"/>
    <rect class="cls-1" x="2843.84" y="5792.64" width="121.04" height="96.38"/>
    <rect class="cls-1" x="3305.59" y="5711.94" width="132.25" height="128.89"/>
    <polygon class="cls-1" points="3935.45 5662.63 4101.31 5662.63 4101.31 5756.77 4202.18 5756.77 4202.18 5900.23 4049.76 5900.23 4049.76 5810.57 3935.45 5810.57 3935.45 5662.63"/>
  </g>
  <g>
    <polygon class="cls-1" points="4566.33 5077.51 4566.33 5649.09 4714.27 5649.09 4714.27 5476.49 4819.62 5476.49 4819.62 5407.01 4956.35 5407.01 4956.35 5541.5 4788.23 5541.5 4788.23 5723.06 4956.35 5723.06 4956.35 5590.81 5234.29 5590.81 5234.29 5427.18 5440.51 5427.18 5440.51 5503.39 5323.95 5503.39 5323.95 5655.81 5492.06 5655.81 5492.06 5537.01 5689.31 5537.01 5689.31 5420.46 5949.32 5420.46 5949.32 5575.12 5866.39 5575.12 5866.39 5691.68 6041.22 5691.68 6041.22 5572.88 6227.26 5572.88 6227.26 5424.94 6402.1 5424.94 6402.1 5519.08 6581.42 5519.08 6581.42 5649.09 6704.7 5649.09 6704.7 5077.51 6538.83 5077.51 6538.83 5122.34 6442.45 5122.34 6442.45 4965.44 6173.47 4965.44 6173.47 4828.71 5991.91 4828.71 5991.91 4985.61 6173.47 4985.61 6173.47 5151.48 6025.53 5151.48 6025.53 5077.51 5868.63 5077.51 5868.63 5133.55 5691.55 5133.55 5691.55 4996.82 5489.82 4996.82 5489.82 5138.03 5348.6 5138.03 5348.6 4976.64 5449.47 4976.64 5449.47 4828.71 5263.43 4828.71 5263.43 4974.4 5054.97 4974.4 5054.97 5195.26 4882.38 5195.26 4882.38 5003.54 4969.79 5003.54 4969.79 4844.4 4817.37 4844.4 4817.37 5001.3 4655.99 5001.3 4655.99 5075.27 4566.33 5077.51"/>
    <rect class="cls-1" x="4615.64" y="4810.77" width="130.01" height="109.83"/>
    <rect class="cls-1" x="5749.83" y="4999.06" width="118.8" height="78.45"/>
    <polygon class="cls-1" points="6417.79 4777.15 6417.79 4844.4 6482.79 4844.4 6482.79 4981.13 6646.42 4981.13 6646.42 4842.15 6482.79 4844.4 6482.79 4777.15 6417.79 4777.15"/>
    <polygon class="cls-1" points="6256.4 5572.88 6256.4 5756.68 6397.62 5756.68 6397.62 5850.82 6646.42 5850.82 6646.42 5711.85 6433.48 5711.85 6433.48 5572.88 6256.4 5572.88"/>
    <rect class="cls-1" x="6168.99" y="5792.54" width="121.04" height="96.38"/>
    <rect class="cls-1" x="5696.03" y="5711.85" width="132.25" height="128.89"/>
    <polygon class="cls-1" points="5198.43 5662.54 5032.56 5662.54 5032.56 5756.68 4931.69 5756.68 4931.69 5900.13 5084.11 5900.13 5084.11 5810.47 5198.43 5810.47 5198.43 5662.54"/>
  </g>
  <g>
    <polygon class="cls-1" points="8382.45 5407.1 8382.45 5541.59 8550.56 5541.59 8550.56 5723.15 8382.45 5723.15 8382.45 5590.9 8104.5 5590.9 8104.5 5427.27 7898.29 5427.27 7898.29 5503.48 8014.84 5503.48 8014.84 5655.91 7846.73 5655.91 7846.73 5537.11 7649.48 5537.11 7649.48 5420.55 7389.47 5420.55 7389.47 5575.21 7472.41 5575.21 7472.41 5691.77 7297.57 5691.77 7297.57 5572.97 7111.53 5572.97 7111.53 5425.03 6936.69 5425.03 6936.69 5519.17 6757.37 5519.17 6757.37 5649.18 6634.09 5649.18 6634.09 5077.6 6799.96 5077.6 6799.96 5122.43 6896.35 5122.43 6896.35 4965.53 7165.32 4965.53 7165.32 4828.8 7346.88 4828.8 7346.88 4985.7 7165.32 4985.7 7165.32 5151.57 7313.26 5151.57 7313.26 5077.6 7470.16 5077.6 7470.16 5133.64 7647.24 5133.64 7647.24 4996.91 7848.97 4996.91 7848.97 5138.12 7990.19 5138.12 7990.19 4976.74 7889.32 4976.74 7889.32 4828.8 8075.36 4828.8 8075.36 4974.5 8283.82 4974.5 8283.82 5195.35 8456.42 5195.35 8456.42 5003.63 8369 5003.63 8369 4844.49 8521.42 4844.49 8521.42 5001.39 8682.81 5001.39 8682.81 5075.36 8682.81 5116.83 8682.81 5303.43 8480.4 5303.43 8382.45 5407.1"/>
    <rect class="cls-1" x="8593.15" y="4810.87" width="130.01" height="109.83"/>
    <rect class="cls-1" x="7470.16" y="4999.15" width="118.8" height="78.45"/>
    <polygon class="cls-1" points="6921 4777.25 6921 4844.49 6856 4844.49 6856 4981.22 6692.37 4981.22 6692.37 4842.25 6856 4844.49 6856 4777.25 6921 4777.25"/>
    <polygon class="cls-1" points="7082.39 5572.97 7082.39 5756.77 6941.18 5756.77 6941.18 5850.91 6692.37 5850.91 6692.37 5711.94 6905.31 5711.94 6905.31 5572.97 7082.39 5572.97"/>
    <rect class="cls-1" x="7048.77" y="5792.64" width="121.04" height="96.38"/>
    <rect class="cls-1" x="7510.51" y="5711.94" width="132.25" height="128.89"/>
    <polygon class="cls-1" points="8140.37 5662.63 8306.24 5662.63 8306.24 5756.77 8407.1 5756.77 8407.1 5900.23 8254.68 5900.23 8254.68 5810.57 8140.37 5810.57 8140.37 5662.63"/>
  </g>
  <g>
    <polygon class="cls-1" points="4560.77 951.44 4560.77 379.86 4412.83 379.86 4412.83 552.45 4307.48 552.45 4307.48 621.94 4170.75 621.94 4170.75 487.45 4338.86 487.45 4338.86 305.89 4170.75 305.89 4170.75 438.14 3892.81 438.14 3892.81 601.77 3686.59 601.77 3686.59 525.56 3803.15 525.56 3803.15 373.14 3635.04 373.14 3635.04 491.93 3437.79 491.93 3437.79 608.49 3177.78 608.49 3177.78 453.83 3260.71 453.83 3260.71 337.27 3085.88 337.27 3085.88 456.07 2899.83 456.07 2899.83 604.01 2725 604.01 2725 509.87 2545.68 509.87 2545.68 379.86 2422.4 379.86 2422.4 951.44 2588.27 951.44 2588.27 906.61 2684.65 906.61 2684.65 1063.51 2953.63 1063.51 2953.63 1200.24 3135.19 1200.24 3135.19 1043.34 2953.63 1043.34 2953.63 877.47 3101.57 877.47 3101.57 951.44 3258.47 951.44 3258.47 895.4 3435.55 895.4 3435.55 1032.13 3637.28 1032.13 3637.28 890.92 3778.49 890.92 3778.49 1052.3 3677.63 1052.3 3677.63 1200.24 3863.67 1200.24 3863.67 1054.54 4072.13 1054.54 4072.13 833.69 4244.72 833.69 4244.72 1025.41 4157.3 1025.41 4157.3 1184.55 4309.73 1184.55 4309.73 1027.65 4471.11 1027.65 4471.11 953.68 4560.77 951.44"/>
    <rect class="cls-1" x="4381.45" y="1108.34" width="130.01" height="109.83"/>
    <rect class="cls-1" x="3258.47" y="951.44" width="118.8" height="78.45"/>
    <polygon class="cls-1" points="2709.31 1251.79 2709.31 1184.55 2644.31 1184.55 2644.31 1047.82 2480.68 1047.82 2480.68 1186.79 2644.31 1184.55 2644.31 1251.79 2709.31 1251.79"/>
    <polygon class="cls-1" points="2870.7 456.07 2870.7 272.27 2729.48 272.27 2729.48 178.13 2480.68 178.13 2480.68 317.1 2693.62 317.1 2693.62 456.07 2870.7 456.07"/>
    <rect class="cls-1" x="2837.07" y="140.02" width="121.04" height="96.38"/>
    <rect class="cls-1" x="3298.82" y="188.21" width="132.25" height="128.89"/>
    <polygon class="cls-1" points="3928.67 366.41 4094.54 366.41 4094.54 272.27 4195.41 272.27 4195.41 128.81 4042.99 128.81 4042.99 218.47 3928.67 218.47 3928.67 366.41"/>
  </g>
  <g>
    <polygon class="cls-1" points="4559.56 951.53 4559.56 379.95 4707.49 379.95 4707.49 552.55 4812.84 552.55 4812.84 622.03 4949.57 622.03 4949.57 487.54 4781.46 487.54 4781.46 305.98 4949.57 305.98 4949.57 438.23 5227.52 438.23 5227.52 601.86 5433.73 601.86 5433.73 525.65 5317.18 525.65 5317.18 373.23 5485.29 373.23 5485.29 492.03 5682.54 492.03 5682.54 608.58 5942.55 608.58 5942.55 453.92 5859.62 453.92 5859.62 337.36 6034.45 337.36 6034.45 456.16 6220.49 456.16 6220.49 604.1 6395.33 604.1 6395.33 509.96 6574.65 509.96 6574.65 379.95 6697.93 379.95 6697.93 951.53 6532.06 951.53 6532.06 906.7 6435.68 906.7 6435.68 1063.6 6166.7 1063.6 6166.7 1200.33 5985.14 1200.33 5985.14 1043.43 6166.7 1043.43 6166.7 877.56 6018.76 877.56 6018.76 951.53 5861.86 951.53 5861.86 895.49 5684.78 895.49 5684.78 1032.22 5483.05 1032.22 5483.05 891.01 5341.83 891.01 5341.83 1052.4 5442.7 1052.4 5442.7 1200.33 5256.66 1200.33 5256.66 1054.64 5048.2 1054.64 5048.2 833.78 4875.61 833.78 4875.61 1025.5 4963.02 1025.5 4963.02 1184.64 4810.6 1184.64 4810.6 1027.74 4649.22 1027.74 4649.22 953.77 4559.56 951.53"/>
    <rect class="cls-1" x="4608.87" y="1108.43" width="130.01" height="109.83"/>
    <rect class="cls-1" x="5743.06" y="951.53" width="118.8" height="78.45"/>
    <polygon class="cls-1" points="6411.02 1251.89 6411.02 1184.64 6476.02 1184.64 6476.02 1047.91 6639.65 1047.91 6639.65 1186.89 6476.02 1184.64 6476.02 1251.89 6411.02 1251.89"/>
    <polygon class="cls-1" points="6249.63 456.16 6249.63 272.36 6390.85 272.36 6390.85 178.22 6639.65 178.22 6639.65 317.19 6426.71 317.19 6426.71 456.16 6249.63 456.16"/>
    <rect class="cls-1" x="6162.21" y="140.11" width="121.04" height="96.38"/>
    <rect class="cls-1" x="5689.26" y="188.31" width="132.25" height="128.89"/>
    <polygon class="cls-1" points="5191.65 366.5 5025.78 366.5 5025.78 272.36 4924.92 272.36 4924.92 128.91 5077.34 128.91 5077.34 218.57 5191.65 218.57 5191.65 366.5"/>
  </g>
  <g>
    <polygon class="cls-1" points="8765.69 951.44 8765.69 379.86 8617.76 379.86 8617.76 552.45 8512.41 552.45 8512.41 621.94 8375.68 621.94 8375.68 487.45 8543.79 487.45 8543.79 305.89 8375.68 305.89 8375.68 438.14 8097.73 438.14 8097.73 601.77 7891.52 601.77 7891.52 525.56 8008.07 525.56 8008.07 373.14 7839.96 373.14 7839.96 491.93 7642.71 491.93 7642.71 608.49 7382.7 608.49 7382.7 453.83 7465.64 453.83 7465.64 337.27 7290.8 337.27 7290.8 456.07 7104.76 456.07 7104.76 604.01 6929.92 604.01 6929.92 509.87 6750.6 509.87 6750.6 379.86 6627.32 379.86 6627.32 951.44 6793.19 951.44 6793.19 906.61 6889.57 906.61 6889.57 1063.51 7158.55 1063.51 7158.55 1200.24 7340.11 1200.24 7340.11 1043.34 7158.55 1043.34 7158.55 877.47 7306.49 877.47 7306.49 951.44 7463.39 951.44 7463.39 895.4 7640.47 895.4 7640.47 1032.13 7842.2 1032.13 7842.2 890.92 7983.42 890.92 7983.42 1052.3 7882.55 1052.3 7882.55 1200.24 8068.59 1200.24 8068.59 1054.54 8277.05 1054.54 8277.05 833.69 8449.64 833.69 8449.64 1025.41 8362.23 1025.41 8362.23 1184.55 8514.65 1184.55 8514.65 1027.65 8676.03 1027.65 8676.03 953.68 8765.69 951.44"/>
    <rect class="cls-1" x="8586.37" y="1108.34" width="130.01" height="109.83"/>
    <rect class="cls-1" x="7463.39" y="951.44" width="118.8" height="78.45"/>
    <polygon class="cls-1" points="6914.23 1251.79 6914.23 1184.55 6849.23 1184.55 6849.23 1047.82 6685.6 1047.82 6685.6 1186.79 6849.23 1184.55 6849.23 1251.79 6914.23 1251.79"/>
    <polygon class="cls-1" points="7075.62 456.07 7075.62 272.27 6934.4 272.27 6934.4 178.13 6685.6 178.13 6685.6 317.1 6898.54 317.1 6898.54 456.07 7075.62 456.07"/>
    <rect class="cls-1" x="7042" y="140.02" width="121.04" height="96.38"/>
    <rect class="cls-1" x="7503.74" y="188.21" width="132.25" height="128.89"/>
    <polygon class="cls-1" points="8133.6 366.41 8299.47 366.41 8299.47 272.27 8400.33 272.27 8400.33 128.81 8247.91 128.81 8247.91 218.47 8133.6 218.47 8133.6 366.41"/>
  </g>
  <g>
    <polygon class="cls-1" points="606.32 621.99 743.05 621.99 743.05 487.5 574.94 487.5 574.94 305.94 743.05 305.94 743.05 438.18 1020.99 438.18 1020.99 601.81 1227.21 601.81 1227.21 525.6 1110.65 525.6 1110.65 373.18 1278.76 373.18 1278.76 491.98 1476.01 491.98 1476.01 608.54 1736.03 608.54 1736.03 453.87 1653.09 453.87 1653.09 337.32 1827.93 337.32 1827.93 456.12 2013.97 456.12 2013.97 604.05 2188.81 604.05 2188.81 509.91 2368.12 509.91 2368.12 379.91 2491.41 379.91 2491.41 951.48 2325.54 951.48 2325.54 906.65 2229.15 906.65 2229.15 1063.56 1960.17 1063.56 1960.17 1200.29 1778.61 1200.29 1778.61 1043.38 1960.17 1043.38 1960.17 877.51 1812.24 877.51 1812.24 951.48 1655.33 951.48 1655.33 895.45 1478.26 895.45 1478.26 1032.18 1276.52 1032.18 1276.52 890.96 1135.31 890.96 1135.31 1052.35 1236.18 1052.35 1236.18 1200.29 1050.13 1200.29 1050.13 1054.59 841.68 1054.59 841.68 833.74 669.08 833.74 669.08 1025.45 756.5 1025.45 756.5 1184.6 604.08 1184.6 604.08 1027.69 442.69 1027.27 442.69 953.72 353.03 951.48 353.03 379.91 500.97 379.91 500.97 552.5 500.97 623.67 606.32 621.99"/>
    <rect class="cls-1" x="377.97" y="1108.39" width="154.38" height="109.83"/>
    <rect class="cls-1" x="1536.53" y="951.48" width="118.8" height="78.45"/>
    <polygon class="cls-1" points="2204.5 1251.84 2204.5 1184.6 2269.5 1184.6 2269.5 1047.87 2433.13 1047.87 2433.13 1186.84 2269.5 1184.6 2269.5 1251.84 2204.5 1251.84"/>
    <polygon class="cls-1" points="2043.11 456.12 2043.11 272.32 2184.32 272.32 2184.32 178.17 2433.13 178.17 2433.13 317.14 2220.19 317.14 2220.19 456.12 2043.11 456.12"/>
    <rect class="cls-1" x="1955.69" y="140.07" width="121.04" height="96.38"/>
    <rect class="cls-1" x="1482.74" y="188.26" width="132.25" height="128.89"/>
    <polygon class="cls-1" points="985.13 366.46 819.26 366.46 819.26 272.32 718.39 272.32 718.39 128.86 870.82 128.86 870.82 218.52 985.13 218.52 985.13 366.46"/>
  </g>
  <g>
    <polygon class="cls-1" points="742.54 5407.19 742.54 5541.68 574.43 5541.68 574.43 5723.24 742.54 5723.24 742.54 5591 1020.48 5591 1020.48 5427.37 1226.7 5427.37 1226.7 5503.58 1110.14 5503.58 1110.14 5656 1278.25 5656 1278.25 5537.2 1475.5 5537.2 1475.5 5420.64 1735.51 5420.64 1735.51 5575.3 1652.58 5575.3 1652.58 5691.86 1827.41 5691.86 1827.41 5573.06 2013.46 5573.06 2013.46 5425.13 2188.29 5425.13 2188.29 5519.27 2367.61 5519.27 2367.61 5649.27 2490.89 5649.27 2490.89 5077.7 2325.02 5077.7 2325.02 5122.53 2228.64 5122.53 2228.64 4965.62 1959.66 4965.62 1959.66 4828.89 1778.1 4828.89 1778.1 4985.8 1959.66 4985.8 1959.66 5151.67 1811.72 5151.67 1811.72 5077.7 1654.82 5077.7 1654.82 5133.73 1477.74 5133.73 1477.74 4997 1276.01 4997 1276.01 5138.22 1134.8 5138.22 1134.8 4976.83 1235.66 4976.83 1235.66 4828.89 1049.62 4828.89 1049.62 4974.59 841.16 4974.59 841.16 5195.44 668.57 5195.44 668.57 5003.73 755.99 5003.73 755.99 4844.58 603.57 5032.59 442.18 5032.59 442.18 5075.45 442.18 5116.92 442.18 5302.68 644.58 5303.53 742.54 5407.19"/>
    <rect class="cls-1" x="408.56" y="4810.96" width="130.01" height="109.83"/>
    <rect class="cls-1" x="1536.02" y="4999.24" width="118.8" height="78.45"/>
    <polygon class="cls-1" points="2203.98 4777.34 2203.98 4844.58 2268.98 4844.58 2268.98 4981.31 2432.61 4981.31 2432.61 4842.34 2268.98 4844.58 2268.98 4777.34 2203.98 4777.34"/>
    <polygon class="cls-1" points="2042.6 5573.06 2042.6 5756.86 2183.81 5756.86 2183.81 5851.01 2432.61 5851.01 2432.61 5712.04 2219.67 5712.04 2219.67 5573.06 2042.6 5573.06"/>
    <rect class="cls-1" x="1955.18" y="5792.73" width="121.04" height="96.38"/>
    <rect class="cls-1" x="1482.23" y="5712.04" width="132.25" height="128.89"/>
    <polygon class="cls-1" points="984.62 5613.97 818.75 5613.97 818.75 5756.86 717.88 5756.86 717.88 5900.32 870.3 5900.32 870.3 5810.66 984.62 5810.66 984.62 5613.97"/>
  </g>
  <g>
    <polygon class="cls-1" points="8253.97 1099.33 8253.97 1247.26 8180 1247.26 8180 1404.17 8236.03 1404.17 8236.03 1581.24 8099.3 1581.24 8099.3 1782.98 8240.52 1782.98 8240.52 1924.19 8079.13 1924.19 8079.13 1823.32 7931.19 1823.32 7931.19 2009.37 8076.89 2009.37 8076.89 2217.83 8297.75 2217.83 8297.75 2390.42 8106.03 2390.42 8106.03 2303 7946.88 2303 7946.88 2455.42 8103.79 2455.42 8103.79 2616.81 8177.76 2616.81 8180 2706.47 8751.57 2706.47 8751.57 2558.53 8578.98 2558.53 8578.98 2453.18 8509.49 2453.18 8509.49 2316.45 8643.98 2316.45 8643.98 2484.56 8825.54 2484.56 8825.54 2316.45 8693.3 2316.45 8693.3 2038.51 8529.67 2038.51 8529.67 1832.29 8605.88 1832.29 8605.88 1948.85 8758.3 1948.85 8758.3 1780.74 8639.5 1780.74 8639.5 1583.49 8522.94 1583.49 8522.94 1323.47 8677.61 1323.47 8677.61 1406.41 8794.16 1406.41 8794.16 1231.57 8675.36 1231.57 8675.36 1045.53 8527.43 1045.53 8527.43 870.7 8621.57 870.7 8621.57 691.38 8751.58 691.38 8751.58 568.1 8180 568.1 8180 733.97 8224.83 733.97 8224.83 830.35 8055.32 830.35 8055.32 1099.33 8253.97 1099.33"/>
    <rect class="cls-1" x="7913.26" y="2527.15" width="109.83" height="130.01"/>
    <rect class="cls-1" x="8101.55" y="1404.17" width="78.45" height="118.8"/>
    <polygon class="cls-1" points="7879.64 855.01 7946.88 855.01 7946.88 790 8083.61 790 8083.61 626.37 7944.64 626.37 7946.88 790 7879.64 790 7879.64 855.01"/>
    <polygon class="cls-1" points="8675.36 1016.39 8859.17 1016.39 8859.17 875.18 8953.31 875.18 8953.31 626.37 8814.34 626.37 8814.34 839.32 8675.36 839.32 8675.36 1016.39"/>
    <rect class="cls-1" x="8895.03" y="982.77" width="96.38" height="121.04"/>
    <rect class="cls-1" x="8814.34" y="1444.51" width="128.89" height="132.25"/>
    <polygon class="cls-1" points="8765.02 2074.37 8765.02 2240.24 8859.17 2240.24 8859.17 2341.11 9002.62 2341.11 9002.62 2188.69 8912.96 2188.69 8912.96 2074.37 8765.02 2074.37"/>
  </g>
  <g>
    <polygon class="cls-1" points="8141.38 5780.31 8141.38 5614.44 8070.49 5614.06 8070.49 5518.05 8070.49 5249.08 8256.54 5249.08 8256.54 5101.14 8182.57 5101.14 8237.58 4990.19 8238.6 4944.24 8238.6 4767.16 8101.87 4767.16 8101.87 4565.43 8243.09 4565.42 8243.09 4424.21 8081.7 4424.21 8081.7 4525.08 7933.76 4525.08 7933.76 4339.04 8079.46 4339.04 8079.46 4130.58 8300.31 4130.58 8300.31 3957.98 8108.6 3957.98 8108.6 4045.4 7949.45 4045.4 7949.45 3892.98 8106.36 3892.98 8106.36 3731.59 8180.32 3731.59 8182.57 3641.94 8754.14 3641.94 8754.14 3789.87 8581.55 3789.87 8581.55 3895.22 8512.06 3895.22 8512.06 4031.95 8646.55 4031.95 8646.55 3863.84 8828.11 3863.84 8828.11 4031.95 8695.86 4031.95 8695.86 4309.9 8532.24 4309.9 8532.24 4516.11 8608.45 4516.11 8608.45 4399.56 8760.87 4399.56 8760.87 4567.67 8642.07 4567.67 8642.07 4764.92 8525.51 4764.92 8525.51 5024.93 8680.17 5024.93 8680.17 4941.99 8796.73 4941.99 8796.73 5116.83 8677.93 5116.83 8677.93 5302.87 8530 5302.87 8530 5477.71 8624.14 5477.71 8624.14 5634.33 8624.14 5649.18 8549.89 5649.18 8549.89 5723.15 8380.94 5723.15 8380.94 5590.9 8305.01 5590.9 8305.01 5756.77 8305.01 5776.38 8141.38 5780.31"/>
    <rect class="cls-1" x="7920.03" y="3691.25" width="109.83" height="130.01"/>
    <polygon class="cls-1" points="8682.14 5332.01 8865.94 5332.01 8865.94 5473.22 8960.08 5473.22 8960.08 5722.03 8821.11 5722.03 8821.11 5509.09 8682.14 5509.09 8682.14 5332.01"/>
    <rect class="cls-1" x="8901.8" y="5244.59" width="96.38" height="121.04"/>
    <rect class="cls-1" x="8821.11" y="4771.64" width="128.89" height="132.25"/>
    <polygon class="cls-1" points="8771.79 4274.03 8771.79 4108.16 8865.94 4108.16 8865.94 4007.3 9009.39 4007.3 9009.39 4159.72 8919.73 4159.72 8919.73 4274.03 8771.79 4274.03"/>
  </g>
  <polygon class="cls-1" points="8180 568.1 8180 545.4 8750.83 545.4 8750.83 593.22 8180 568.1"/>
  <polygon class="cls-1" points="8675.36 1016.39 8675.36 1103.81 8716.38 1103.81 8716.38 1246.24 8474.38 1246.24 8474.38 999.68 8675.36 1016.39"/>
  <g>
    <polyline class="cls-1" points="552.86 882.91 458.72 882.91 458.72 703.59 357.29 703.59 357.29 580.31 900.29 580.31 900.29 746.18 855.46 746.18 855.46 842.56 1024.97 842.56 1024.97 1056.06 826.32 1056.06 826.32 1259.48 900.29 1259.48 900.29 1416.38 844.25 1416.38 844.25 1593.46 980.98 1593.46 980.98 1795.19 839.77 1795.19 839.77 1936.41 1001.15 1936.41 1001.15 1835.54 1149.09 1835.54 1149.09 2021.58 1003.4 2021.58 1003.4 2230.04 782.54 2230.04 782.54 2402.63 974.26 2402.63 974.26 2315.21 1133.4 2315.21 1133.4 2467.64 976.5 2467.64 976.5 2629.02 902.53 2629.02 903.55 2702.84 329.4 2702.84 328.71 2570.74 501.3 2570.74 501.3 2465.39 570.79 2465.39 570.79 2328.66 436.3 2328.66 436.3 2496.77 254.74 2496.77 254.74 2328.66 386.99 2328.66 386.99 2050.72 550.62 2050.72 550.62 1844.5 474.41 1844.5 474.41 1961.06 321.99 1961.06 321.99 1792.95 440.78 1792.95 440.78 1595.7 557.34 1595.7 557.34 1335.69 402.68 1335.69 402.68 1418.62 286.12 1418.62 286.12 1218.57 416.6 1218.57 416.6 1022.68"/>
    <rect class="cls-1" x="1059.19" y="2538.03" width="109.83" height="130.01"/>
    <rect class="cls-1" x="902.29" y="1415.05" width="78.45" height="118.8"/>
    <polygon class="cls-1" points="1202.65 865.89 1135.4 865.89 1135.4 800.88 998.67 800.88 998.67 637.25 1137.64 637.25 1135.4 800.88 1202.65 800.88 1202.65 865.89"/>
    <polygon class="cls-1" points="456.51 1027.27 223.12 1027.27 223.12 886.06 128.98 886.06 128.98 637.26 267.95 637.26 267.95 850.2 456.51 850.2 456.51 1027.27"/>
    <rect class="cls-1" x="90.87" y="993.65" width="96.38" height="121.04"/>
    <rect class="cls-1" x="139.06" y="1455.4" width="128.89" height="132.25"/>
    <polygon class="cls-1" points="317.26 2085.25 317.26 2251.12 223.12 2251.12 223.12 2351.99 79.66 2351.99 79.66 2199.57 169.32 2199.57 169.32 2085.25 317.26 2085.25"/>
  </g>
  <g>
    <polygon class="cls-1" points="956.97 5620.27 1027.86 5619.9 1027.86 5518.01 1027.86 5249.03 841.81 5249.03 841.81 5101.09 915.78 5101.09 860.49 4999.15 859.75 4944.19 859.75 4767.11 996.48 4767.11 996.48 4565.38 855.26 4565.38 855.26 4424.16 1016.65 4424.17 1016.65 4525.03 1164.59 4525.03 1164.59 4338.99 1018.89 4338.99 1018.89 4130.53 798.04 4130.53 798.04 3957.94 989.75 3957.94 989.75 4045.35 1148.9 4045.36 1148.9 3892.93 991.99 3892.93 991.99 3731.55 896.67 3732 898.07 3638.31 329.21 3632.89 329.21 3789.83 516.8 3789.83 516.8 3895.18 586.29 3895.18 586.29 4031.91 451.8 4031.91 451.8 3863.79 270.24 3863.79 270.24 4031.91 402.48 4031.91 402.48 4309.85 566.11 4309.85 566.11 4516.07 489.9 4516.07 489.9 4399.51 337.48 4399.51 337.48 4567.62 456.28 4567.62 456.28 4764.87 572.84 4764.87 572.84 5024.88 418.17 5024.88 418.17 4941.95 301.62 4941.95 301.62 5116.78 420.42 5116.78 420.42 5302.82 568.35 5302.82 568.35 5477.66 474.21 5477.66 474.21 5634.28 474.21 5649.13 548.46 5649.13 548.46 5723.1 717.41 5723.1 717.41 5619.43 793.34 5619.43 956.97 5620.27"/>
    <rect class="cls-1" x="1068.48" y="3691.2" width="109.83" height="130.01"/>
    <polygon class="cls-1" points="416.21 5331.96 232.41 5331.96 232.41 5473.18 138.27 5473.18 138.27 5721.98 277.24 5721.98 277.24 5509.04 416.21 5509.04 416.21 5331.96"/>
    <rect class="cls-1" x="100.16" y="5244.55" width="96.38" height="121.04"/>
    <rect class="cls-1" x="148.36" y="4771.59" width="128.89" height="132.25"/>
    <polygon class="cls-1" points="326.55 4273.99 326.55 4108.12 232.41 4108.12 232.41 4007.25 88.96 4007.25 88.96 4159.67 178.62 4159.67 178.62 4273.99 326.55 4273.99"/>
  </g>
  <polygon class="cls-1" points="8180 2706.47 8180 3024 8047.33 3024 8047.33 3178.67 8180 3178.67 8180 3274.67 8132.67 3274.67 8132.67 3410.67 8180 3410.67 8180 3641.94 8754.14 3641.94 8754.14 3466.67 8847.33 3466.67 8847.33 3365.33 8978 3365.33 8978 3200 8839.33 3200 8839.33 3314.67 8740.67 3314.67 8740.67 3128 8636.67 3128 8636.67 2885.33 8748.67 2885.33 8748.67 2706.47 8180 2706.47"/>
  <rect class="cls-1" x="7913.26" y="3277.33" width="116.6" height="173.33"/>
  <rect class="cls-1" x="8784.57" y="2821.33" width="116.6" height="173.33"/>
  <polygon class="cls-1" points="329.4 3638.31 329.4 3320.78 196.74 3320.78 196.74 3166.11 329.4 3166.11 329.4 3070.11 282.07 3070.11 282.07 2934.11 329.4 2934.11 329.4 2702.84 903.55 2702.84 903.55 2878.11 996.74 2878.11 996.74 2979.44 1127.4 2979.44 1127.4 3144.78 988.74 3144.78 988.74 3030.11 890.07 3030.11 890.07 3216.78 786.07 3216.78 786.07 3459.44 898.07 3459.44 898.07 3638.31 329.4 3638.31"/>
  <rect class="cls-1" x="62.66" y="2894.11" width="116.6" height="173.33"/>
  <rect class="cls-1" x="933.98" y="3350.11" width="116.6" height="173.33"/>
</svg>